<mxfile host="app.diagrams.net" modified="2023-04-14T14:32:16.221Z" agent="Mozilla/5.0 (Windows NT 10.0; Win64; x64) AppleWebKit/537.36 (KHTML, like Gecko) Chrome/112.0.0.0 Safari/537.36" etag="D81ZgyBFT4-6wbfI7XiA" version="21.1.7" type="google">
  <diagram name="Trang-1" id="4RpuYi7avetaEBU4RcvP">
    <mxGraphModel dx="2358" dy="2437" grid="1" gridSize="10" guides="1" tooltips="1" connect="1" arrows="1" fold="1" page="1" pageScale="1" pageWidth="827" pageHeight="1169" math="0" shadow="0">
      <root>
        <mxCell id="0" />
        <mxCell id="1" parent="0" />
        <mxCell id="ESTctOifAB1JOvWOm2H_-1" value="" style="shape=table;startSize=0;container=1;collapsible=0;childLayout=tableLayout;" parent="1" vertex="1">
          <mxGeometry x="230" y="320" width="260" height="40" as="geometry" />
        </mxCell>
        <mxCell id="ESTctOifAB1JOvWOm2H_-2" value="" style="shape=tableRow;horizontal=0;startSize=0;swimlaneHead=0;swimlaneBody=0;strokeColor=inherit;top=0;left=0;bottom=0;right=0;collapsible=0;dropTarget=0;fillColor=none;points=[[0,0.5],[1,0.5]];portConstraint=eastwest;" parent="ESTctOifAB1JOvWOm2H_-1" vertex="1">
          <mxGeometry width="260" height="40" as="geometry" />
        </mxCell>
        <mxCell id="ESTctOifAB1JOvWOm2H_-3" value="&lt;u&gt;ID&lt;/u&gt;" style="shape=partialRectangle;html=1;whiteSpace=wrap;connectable=0;strokeColor=inherit;overflow=hidden;fillColor=none;top=0;left=0;bottom=0;right=0;pointerEvents=1;" parent="ESTctOifAB1JOvWOm2H_-2" vertex="1">
          <mxGeometry width="66" height="40" as="geometry">
            <mxRectangle width="66" height="40" as="alternateBounds" />
          </mxGeometry>
        </mxCell>
        <mxCell id="ESTctOifAB1JOvWOm2H_-4" value="Start-hour" style="shape=partialRectangle;html=1;whiteSpace=wrap;connectable=0;strokeColor=inherit;overflow=hidden;fillColor=none;top=0;left=0;bottom=0;right=0;pointerEvents=1;" parent="ESTctOifAB1JOvWOm2H_-2" vertex="1">
          <mxGeometry x="66" width="64" height="40" as="geometry">
            <mxRectangle width="64" height="40" as="alternateBounds" />
          </mxGeometry>
        </mxCell>
        <mxCell id="ESTctOifAB1JOvWOm2H_-5" value="End-hour" style="shape=partialRectangle;html=1;whiteSpace=wrap;connectable=0;strokeColor=inherit;overflow=hidden;fillColor=none;top=0;left=0;bottom=0;right=0;pointerEvents=1;" parent="ESTctOifAB1JOvWOm2H_-2" vertex="1">
          <mxGeometry x="130" width="66" height="40" as="geometry">
            <mxRectangle width="66" height="40" as="alternateBounds" />
          </mxGeometry>
        </mxCell>
        <mxCell id="ESTctOifAB1JOvWOm2H_-6" value="" style="shape=partialRectangle;html=1;whiteSpace=wrap;connectable=0;strokeColor=inherit;overflow=hidden;fillColor=none;top=0;left=0;bottom=0;right=0;pointerEvents=1;" parent="ESTctOifAB1JOvWOm2H_-2" vertex="1">
          <mxGeometry x="196" width="64" height="40" as="geometry">
            <mxRectangle width="64" height="40" as="alternateBounds" />
          </mxGeometry>
        </mxCell>
        <mxCell id="ESTctOifAB1JOvWOm2H_-7" value="&lt;b&gt;TIMETABLE&lt;/b&gt;" style="text;html=1;strokeColor=none;fillColor=none;align=center;verticalAlign=middle;whiteSpace=wrap;rounded=0;" parent="1" vertex="1">
          <mxGeometry x="230" y="290" width="70" height="30" as="geometry" />
        </mxCell>
        <mxCell id="ESTctOifAB1JOvWOm2H_-10" value="" style="shape=table;startSize=0;container=1;collapsible=0;childLayout=tableLayout;" parent="1" vertex="1">
          <mxGeometry x="234" y="190" width="180" height="40" as="geometry" />
        </mxCell>
        <mxCell id="ESTctOifAB1JOvWOm2H_-11" value="" style="shape=tableRow;horizontal=0;startSize=0;swimlaneHead=0;swimlaneBody=0;strokeColor=inherit;top=0;left=0;bottom=0;right=0;collapsible=0;dropTarget=0;fillColor=none;points=[[0,0.5],[1,0.5]];portConstraint=eastwest;" parent="ESTctOifAB1JOvWOm2H_-10" vertex="1">
          <mxGeometry width="180" height="40" as="geometry" />
        </mxCell>
        <mxCell id="ESTctOifAB1JOvWOm2H_-12" value="&lt;u&gt;Number&lt;/u&gt;" style="shape=partialRectangle;html=1;whiteSpace=wrap;connectable=0;strokeColor=inherit;overflow=hidden;fillColor=none;top=0;left=0;bottom=0;right=0;pointerEvents=1;" parent="ESTctOifAB1JOvWOm2H_-11" vertex="1">
          <mxGeometry width="60" height="40" as="geometry">
            <mxRectangle width="60" height="40" as="alternateBounds" />
          </mxGeometry>
        </mxCell>
        <mxCell id="ESTctOifAB1JOvWOm2H_-13" value="Max of seat" style="shape=partialRectangle;html=1;whiteSpace=wrap;connectable=0;strokeColor=inherit;overflow=hidden;fillColor=none;top=0;left=0;bottom=0;right=0;pointerEvents=1;" parent="ESTctOifAB1JOvWOm2H_-11" vertex="1">
          <mxGeometry x="60" width="60" height="40" as="geometry">
            <mxRectangle width="60" height="40" as="alternateBounds" />
          </mxGeometry>
        </mxCell>
        <mxCell id="ESTctOifAB1JOvWOm2H_-14" value="" style="shape=partialRectangle;html=1;whiteSpace=wrap;connectable=0;strokeColor=inherit;overflow=hidden;fillColor=none;top=0;left=0;bottom=0;right=0;pointerEvents=1;" parent="ESTctOifAB1JOvWOm2H_-11" vertex="1">
          <mxGeometry x="120" width="60" height="40" as="geometry">
            <mxRectangle width="60" height="40" as="alternateBounds" />
          </mxGeometry>
        </mxCell>
        <mxCell id="ESTctOifAB1JOvWOm2H_-15" value="&lt;b&gt;CLASSROOM&lt;/b&gt;" style="text;html=1;strokeColor=none;fillColor=none;align=center;verticalAlign=middle;whiteSpace=wrap;rounded=0;" parent="1" vertex="1">
          <mxGeometry x="234" y="160" width="80" height="30" as="geometry" />
        </mxCell>
        <mxCell id="ESTctOifAB1JOvWOm2H_-16" value="&lt;b&gt;STUDENT&lt;/b&gt;" style="text;html=1;strokeColor=none;fillColor=none;align=center;verticalAlign=middle;whiteSpace=wrap;rounded=0;" parent="1" vertex="1">
          <mxGeometry x="230" y="390" width="60" height="30" as="geometry" />
        </mxCell>
        <mxCell id="ESTctOifAB1JOvWOm2H_-17" value="" style="shape=table;startSize=0;container=1;collapsible=0;childLayout=tableLayout;" parent="1" vertex="1">
          <mxGeometry x="230" y="420" width="682" height="40" as="geometry" />
        </mxCell>
        <mxCell id="ESTctOifAB1JOvWOm2H_-18" value="" style="shape=tableRow;horizontal=0;startSize=0;swimlaneHead=0;swimlaneBody=0;strokeColor=inherit;top=0;left=0;bottom=0;right=0;collapsible=0;dropTarget=0;fillColor=none;points=[[0,0.5],[1,0.5]];portConstraint=eastwest;" parent="ESTctOifAB1JOvWOm2H_-17" vertex="1">
          <mxGeometry width="682" height="40" as="geometry" />
        </mxCell>
        <mxCell id="ESTctOifAB1JOvWOm2H_-19" value="&lt;u&gt;SSN&lt;/u&gt;" style="shape=partialRectangle;html=1;whiteSpace=wrap;connectable=0;strokeColor=inherit;overflow=hidden;fillColor=none;top=0;left=0;bottom=0;right=0;pointerEvents=1;" parent="ESTctOifAB1JOvWOm2H_-18" vertex="1">
          <mxGeometry width="62" height="40" as="geometry">
            <mxRectangle width="62" height="40" as="alternateBounds" />
          </mxGeometry>
        </mxCell>
        <mxCell id="ESTctOifAB1JOvWOm2H_-20" value="Name" style="shape=partialRectangle;html=1;whiteSpace=wrap;connectable=0;strokeColor=inherit;overflow=hidden;fillColor=none;top=0;left=0;bottom=0;right=0;pointerEvents=1;" parent="ESTctOifAB1JOvWOm2H_-18" vertex="1">
          <mxGeometry x="62" width="62" height="40" as="geometry">
            <mxRectangle width="62" height="40" as="alternateBounds" />
          </mxGeometry>
        </mxCell>
        <mxCell id="ESTctOifAB1JOvWOm2H_-21" value="Phone" style="shape=partialRectangle;html=1;whiteSpace=wrap;connectable=0;strokeColor=inherit;overflow=hidden;fillColor=none;top=0;left=0;bottom=0;right=0;pointerEvents=1;" parent="ESTctOifAB1JOvWOm2H_-18" vertex="1">
          <mxGeometry x="124" width="62" height="40" as="geometry">
            <mxRectangle width="62" height="40" as="alternateBounds" />
          </mxGeometry>
        </mxCell>
        <mxCell id="ESTctOifAB1JOvWOm2H_-22" value="&#xa;&lt;span style=&quot;color: rgb(0, 0, 0); font-family: Helvetica; font-size: 12px; font-style: normal; font-variant-ligatures: normal; font-variant-caps: normal; font-weight: 400; letter-spacing: normal; orphans: 2; text-align: center; text-indent: 0px; text-transform: none; widows: 2; word-spacing: 0px; -webkit-text-stroke-width: 0px; background-color: rgb(251, 251, 251); text-decoration-thickness: initial; text-decoration-style: initial; text-decoration-color: initial; float: none; display: inline !important;&quot;&gt;Birthday&lt;/span&gt;&#xa;&#xa;" style="shape=partialRectangle;html=1;whiteSpace=wrap;connectable=0;strokeColor=inherit;overflow=hidden;fillColor=none;top=0;left=0;bottom=0;right=0;pointerEvents=1;" parent="ESTctOifAB1JOvWOm2H_-18" vertex="1">
          <mxGeometry x="186" width="74" height="40" as="geometry">
            <mxRectangle width="74" height="40" as="alternateBounds" />
          </mxGeometry>
        </mxCell>
        <mxCell id="ESTctOifAB1JOvWOm2H_-23" value="Birthplace" style="shape=partialRectangle;html=1;whiteSpace=wrap;connectable=0;strokeColor=inherit;overflow=hidden;fillColor=none;top=0;left=0;bottom=0;right=0;pointerEvents=1;" parent="ESTctOifAB1JOvWOm2H_-18" vertex="1">
          <mxGeometry x="260" width="80" height="40" as="geometry">
            <mxRectangle width="80" height="40" as="alternateBounds" />
          </mxGeometry>
        </mxCell>
        <mxCell id="ESTctOifAB1JOvWOm2H_-24" value="Email" style="shape=partialRectangle;html=1;whiteSpace=wrap;connectable=0;strokeColor=inherit;overflow=hidden;fillColor=none;top=0;left=0;bottom=0;right=0;pointerEvents=1;" parent="ESTctOifAB1JOvWOm2H_-18" vertex="1">
          <mxGeometry x="340" width="70" height="40" as="geometry">
            <mxRectangle width="70" height="40" as="alternateBounds" />
          </mxGeometry>
        </mxCell>
        <mxCell id="ESTctOifAB1JOvWOm2H_-25" value="Address" style="shape=partialRectangle;html=1;whiteSpace=wrap;connectable=0;strokeColor=inherit;overflow=hidden;fillColor=none;top=0;left=0;bottom=0;right=0;pointerEvents=1;" parent="ESTctOifAB1JOvWOm2H_-18" vertex="1">
          <mxGeometry x="410" width="66" height="40" as="geometry">
            <mxRectangle width="66" height="40" as="alternateBounds" />
          </mxGeometry>
        </mxCell>
        <mxCell id="ESTctOifAB1JOvWOm2H_-26" value="" style="shape=partialRectangle;html=1;whiteSpace=wrap;connectable=0;strokeColor=inherit;overflow=hidden;fillColor=none;top=0;left=0;bottom=0;right=0;pointerEvents=1;" parent="ESTctOifAB1JOvWOm2H_-18" vertex="1">
          <mxGeometry x="476" width="20" height="40" as="geometry">
            <mxRectangle width="20" height="40" as="alternateBounds" />
          </mxGeometry>
        </mxCell>
        <mxCell id="ESTctOifAB1JOvWOm2H_-27" value="" style="shape=partialRectangle;html=1;whiteSpace=wrap;connectable=0;strokeColor=inherit;overflow=hidden;fillColor=none;top=0;left=0;bottom=0;right=0;pointerEvents=1;" parent="ESTctOifAB1JOvWOm2H_-18" vertex="1">
          <mxGeometry x="496" width="62" height="40" as="geometry">
            <mxRectangle width="62" height="40" as="alternateBounds" />
          </mxGeometry>
        </mxCell>
        <mxCell id="ESTctOifAB1JOvWOm2H_-28" value="" style="shape=partialRectangle;html=1;whiteSpace=wrap;connectable=0;strokeColor=inherit;overflow=hidden;fillColor=none;top=0;left=0;bottom=0;right=0;pointerEvents=1;" parent="ESTctOifAB1JOvWOm2H_-18" vertex="1">
          <mxGeometry x="558" width="62" height="40" as="geometry">
            <mxRectangle width="62" height="40" as="alternateBounds" />
          </mxGeometry>
        </mxCell>
        <mxCell id="ESTctOifAB1JOvWOm2H_-29" style="shape=partialRectangle;html=1;whiteSpace=wrap;connectable=0;strokeColor=inherit;overflow=hidden;fillColor=none;top=0;left=0;bottom=0;right=0;pointerEvents=1;" parent="ESTctOifAB1JOvWOm2H_-18" vertex="1">
          <mxGeometry x="620" width="62" height="40" as="geometry">
            <mxRectangle width="62" height="40" as="alternateBounds" />
          </mxGeometry>
        </mxCell>
        <mxCell id="ESTctOifAB1JOvWOm2H_-30" value="" style="shape=table;startSize=0;container=1;collapsible=0;childLayout=tableLayout;" parent="1" vertex="1">
          <mxGeometry x="234" y="530" width="696" height="60" as="geometry" />
        </mxCell>
        <mxCell id="ESTctOifAB1JOvWOm2H_-31" value="" style="shape=tableRow;horizontal=0;startSize=0;swimlaneHead=0;swimlaneBody=0;strokeColor=inherit;top=0;left=0;bottom=0;right=0;collapsible=0;dropTarget=0;fillColor=none;points=[[0,0.5],[1,0.5]];portConstraint=eastwest;" parent="ESTctOifAB1JOvWOm2H_-30" vertex="1">
          <mxGeometry width="696" height="60" as="geometry" />
        </mxCell>
        <mxCell id="ESTctOifAB1JOvWOm2H_-32" value="Start-date" style="shape=partialRectangle;html=1;whiteSpace=wrap;connectable=0;strokeColor=inherit;overflow=hidden;fillColor=none;top=0;left=0;bottom=0;right=0;pointerEvents=1;" parent="ESTctOifAB1JOvWOm2H_-31" vertex="1">
          <mxGeometry width="61" height="60" as="geometry">
            <mxRectangle width="61" height="60" as="alternateBounds" />
          </mxGeometry>
        </mxCell>
        <mxCell id="ESTctOifAB1JOvWOm2H_-33" value="End-date" style="shape=partialRectangle;html=1;whiteSpace=wrap;connectable=0;strokeColor=inherit;overflow=hidden;fillColor=none;top=0;left=0;bottom=0;right=0;pointerEvents=1;" parent="ESTctOifAB1JOvWOm2H_-31" vertex="1">
          <mxGeometry x="61" width="62" height="60" as="geometry">
            <mxRectangle width="62" height="60" as="alternateBounds" />
          </mxGeometry>
        </mxCell>
        <mxCell id="ESTctOifAB1JOvWOm2H_-34" value="&lt;u&gt;Name&lt;/u&gt;" style="shape=partialRectangle;html=1;whiteSpace=wrap;connectable=0;strokeColor=inherit;overflow=hidden;fillColor=none;top=0;left=0;bottom=0;right=0;pointerEvents=1;" parent="ESTctOifAB1JOvWOm2H_-31" vertex="1">
          <mxGeometry x="123" width="61" height="60" as="geometry">
            <mxRectangle width="61" height="60" as="alternateBounds" />
          </mxGeometry>
        </mxCell>
        <mxCell id="ESTctOifAB1JOvWOm2H_-35" value="Status" style="shape=partialRectangle;html=1;whiteSpace=wrap;connectable=0;strokeColor=inherit;overflow=hidden;fillColor=none;top=0;left=0;bottom=0;right=0;pointerEvents=1;" parent="ESTctOifAB1JOvWOm2H_-31" vertex="1">
          <mxGeometry x="184" width="61" height="60" as="geometry">
            <mxRectangle width="61" height="60" as="alternateBounds" />
          </mxGeometry>
        </mxCell>
        <mxCell id="ESTctOifAB1JOvWOm2H_-36" value="Maximum_number_of_students" style="shape=partialRectangle;html=1;whiteSpace=wrap;connectable=0;strokeColor=inherit;overflow=hidden;fillColor=none;top=0;left=0;bottom=0;right=0;pointerEvents=1;" parent="ESTctOifAB1JOvWOm2H_-31" vertex="1">
          <mxGeometry x="245" width="181" height="60" as="geometry">
            <mxRectangle width="181" height="60" as="alternateBounds" />
          </mxGeometry>
        </mxCell>
        <mxCell id="ESTctOifAB1JOvWOm2H_-37" value="Initial_number_of_sessions" style="shape=partialRectangle;html=1;whiteSpace=wrap;connectable=0;strokeColor=inherit;overflow=hidden;fillColor=none;top=0;left=0;bottom=0;right=0;pointerEvents=1;" parent="ESTctOifAB1JOvWOm2H_-31" vertex="1">
          <mxGeometry x="426" width="220" height="60" as="geometry">
            <mxRectangle width="220" height="60" as="alternateBounds" />
          </mxGeometry>
        </mxCell>
        <mxCell id="ESTctOifAB1JOvWOm2H_-38" value="" style="shape=partialRectangle;html=1;whiteSpace=wrap;connectable=0;strokeColor=inherit;overflow=hidden;fillColor=none;top=0;left=0;bottom=0;right=0;pointerEvents=1;" parent="ESTctOifAB1JOvWOm2H_-31" vertex="1">
          <mxGeometry x="646" width="30" height="60" as="geometry">
            <mxRectangle width="30" height="60" as="alternateBounds" />
          </mxGeometry>
        </mxCell>
        <mxCell id="ESTctOifAB1JOvWOm2H_-39" value="" style="shape=partialRectangle;html=1;whiteSpace=wrap;connectable=0;strokeColor=inherit;overflow=hidden;fillColor=none;top=0;left=0;bottom=0;right=0;pointerEvents=1;" parent="ESTctOifAB1JOvWOm2H_-31" vertex="1">
          <mxGeometry x="676" width="20" height="60" as="geometry">
            <mxRectangle width="20" height="60" as="alternateBounds" />
          </mxGeometry>
        </mxCell>
        <mxCell id="ESTctOifAB1JOvWOm2H_-40" value="&lt;b&gt;CLASS&lt;/b&gt;" style="text;html=1;strokeColor=none;fillColor=none;align=center;verticalAlign=middle;whiteSpace=wrap;rounded=0;" parent="1" vertex="1">
          <mxGeometry x="234" y="500" width="50" height="30" as="geometry" />
        </mxCell>
        <mxCell id="ESTctOifAB1JOvWOm2H_-41" value="" style="shape=table;startSize=0;container=1;collapsible=0;childLayout=tableLayout;movable=1;resizable=1;rotatable=1;deletable=1;editable=1;locked=0;connectable=1;" parent="1" vertex="1">
          <mxGeometry x="230" y="650" width="350" height="40" as="geometry" />
        </mxCell>
        <mxCell id="ESTctOifAB1JOvWOm2H_-42" value="" style="shape=tableRow;horizontal=0;startSize=0;swimlaneHead=0;swimlaneBody=0;strokeColor=inherit;top=0;left=0;bottom=0;right=0;collapsible=0;dropTarget=0;fillColor=none;points=[[0,0.5],[1,0.5]];portConstraint=eastwest;movable=1;resizable=1;rotatable=1;deletable=1;editable=1;locked=0;connectable=1;" parent="ESTctOifAB1JOvWOm2H_-41" vertex="1">
          <mxGeometry width="350" height="40" as="geometry" />
        </mxCell>
        <mxCell id="ESTctOifAB1JOvWOm2H_-43" value="&lt;u style=&quot;border-color: var(--border-color);&quot;&gt;Session_number&lt;/u&gt;" style="shape=partialRectangle;html=1;whiteSpace=wrap;connectable=1;strokeColor=inherit;overflow=hidden;fillColor=none;top=0;left=0;bottom=0;right=0;pointerEvents=1;movable=1;resizable=1;rotatable=1;deletable=1;editable=1;locked=0;" parent="ESTctOifAB1JOvWOm2H_-42" vertex="1">
          <mxGeometry width="100" height="40" as="geometry">
            <mxRectangle width="100" height="40" as="alternateBounds" />
          </mxGeometry>
        </mxCell>
        <mxCell id="ESTctOifAB1JOvWOm2H_-44" value="&lt;u style=&quot;border-color: var(--border-color);&quot;&gt;Class_name&lt;/u&gt;" style="shape=partialRectangle;html=1;whiteSpace=wrap;connectable=1;strokeColor=inherit;overflow=hidden;fillColor=none;top=0;left=0;bottom=0;right=0;pointerEvents=1;movable=1;resizable=1;rotatable=1;deletable=1;editable=1;locked=0;" parent="ESTctOifAB1JOvWOm2H_-42" vertex="1">
          <mxGeometry x="100" width="80" height="40" as="geometry">
            <mxRectangle width="80" height="40" as="alternateBounds" />
          </mxGeometry>
        </mxCell>
        <mxCell id="ESTctOifAB1JOvWOm2H_-45" value="&lt;span style=&quot;border-color: var(--border-color);&quot;&gt;Date&lt;/span&gt;" style="shape=partialRectangle;html=1;whiteSpace=wrap;connectable=1;strokeColor=inherit;overflow=hidden;fillColor=none;top=0;left=0;bottom=0;right=0;pointerEvents=1;movable=1;resizable=1;rotatable=1;deletable=1;editable=1;locked=0;" parent="ESTctOifAB1JOvWOm2H_-42" vertex="1">
          <mxGeometry x="180" width="60" height="40" as="geometry">
            <mxRectangle width="60" height="40" as="alternateBounds" />
          </mxGeometry>
        </mxCell>
        <mxCell id="ESTctOifAB1JOvWOm2H_-46" value="Note" style="shape=partialRectangle;html=1;whiteSpace=wrap;connectable=1;strokeColor=inherit;overflow=hidden;fillColor=none;top=0;left=0;bottom=0;right=0;pointerEvents=1;movable=1;resizable=1;rotatable=1;deletable=1;editable=1;locked=0;" parent="ESTctOifAB1JOvWOm2H_-42" vertex="1">
          <mxGeometry x="240" width="60" height="40" as="geometry">
            <mxRectangle width="60" height="40" as="alternateBounds" />
          </mxGeometry>
        </mxCell>
        <mxCell id="ESTctOifAB1JOvWOm2H_-47" value="Status" style="shape=partialRectangle;html=1;whiteSpace=wrap;connectable=1;strokeColor=inherit;overflow=hidden;fillColor=none;top=0;left=0;bottom=0;right=0;pointerEvents=1;movable=1;resizable=1;rotatable=1;deletable=1;editable=1;locked=0;" parent="ESTctOifAB1JOvWOm2H_-42" vertex="1">
          <mxGeometry x="300" width="50" height="40" as="geometry">
            <mxRectangle width="50" height="40" as="alternateBounds" />
          </mxGeometry>
        </mxCell>
        <mxCell id="ESTctOifAB1JOvWOm2H_-48" value="&lt;b&gt;SESSION&amp;nbsp;&lt;/b&gt;" style="text;html=1;strokeColor=none;fillColor=none;align=center;verticalAlign=middle;whiteSpace=wrap;rounded=0;" parent="1" vertex="1">
          <mxGeometry x="230" y="620" width="90" height="30" as="geometry" />
        </mxCell>
        <mxCell id="ESTctOifAB1JOvWOm2H_-74" value="" style="group" parent="1" connectable="0" vertex="1">
          <mxGeometry x="600" y="640" width="400" height="50" as="geometry" />
        </mxCell>
        <mxCell id="ESTctOifAB1JOvWOm2H_-59" value="" style="rounded=0;whiteSpace=wrap;html=1;movable=1;resizable=1;rotatable=1;deletable=1;editable=1;locked=0;connectable=1;" parent="ESTctOifAB1JOvWOm2H_-74" vertex="1">
          <mxGeometry x="-20.99523809523808" y="10" width="247.6190476190476" height="40" as="geometry" />
        </mxCell>
        <mxCell id="ESTctOifAB1JOvWOm2H_-78" value="" style="group" parent="ESTctOifAB1JOvWOm2H_-74" connectable="0" vertex="1">
          <mxGeometry x="-29.99523809523805" y="5" width="247.6190476190476" height="40" as="geometry" />
        </mxCell>
        <mxCell id="ESTctOifAB1JOvWOm2H_-65" value="Session_number_make_up_for" style="text;html=1;strokeColor=none;fillColor=none;align=center;verticalAlign=middle;whiteSpace=wrap;rounded=0;container=0;movable=1;resizable=1;rotatable=1;deletable=1;editable=1;locked=0;connectable=1;" parent="ESTctOifAB1JOvWOm2H_-78" vertex="1">
          <mxGeometry x="95.71523809523808" y="10" width="60" height="30" as="geometry" />
        </mxCell>
        <mxCell id="ESTctOifAB1JOvWOm2H_-75" value="" style="rounded=0;whiteSpace=wrap;html=1;" parent="1" vertex="1">
          <mxGeometry x="1070" y="650" width="120" height="40" as="geometry" />
        </mxCell>
        <mxCell id="ESTctOifAB1JOvWOm2H_-76" value="Timetable_ID_in" style="text;html=1;strokeColor=none;fillColor=none;align=center;verticalAlign=middle;whiteSpace=wrap;rounded=0;" parent="1" vertex="1">
          <mxGeometry x="1090" y="655" width="60" height="30" as="geometry" />
        </mxCell>
        <mxCell id="ESTctOifAB1JOvWOm2H_-64" value="" style="group" parent="1" connectable="0" vertex="1">
          <mxGeometry x="810" y="640" width="260" height="50" as="geometry" />
        </mxCell>
        <mxCell id="ESTctOifAB1JOvWOm2H_-63" value="Class_name" style="text;html=1;strokeColor=none;fillColor=none;align=center;verticalAlign=middle;whiteSpace=wrap;rounded=0;" parent="ESTctOifAB1JOvWOm2H_-64" vertex="1">
          <mxGeometry x="61.9047619047619" y="5" height="30" as="geometry" />
        </mxCell>
        <mxCell id="ESTctOifAB1JOvWOm2H_-60" value="" style="rounded=0;whiteSpace=wrap;html=1;" parent="ESTctOifAB1JOvWOm2H_-64" vertex="1">
          <mxGeometry x="12.380952380952378" y="10" width="247.6190476190476" height="40" as="geometry" />
        </mxCell>
        <mxCell id="ESTctOifAB1JOvWOm2H_-73" value="Class_name_make_up_for" style="text;html=1;strokeColor=none;fillColor=none;align=center;verticalAlign=middle;whiteSpace=wrap;rounded=0;" parent="ESTctOifAB1JOvWOm2H_-64" vertex="1">
          <mxGeometry x="92.85714285714285" y="15" width="74.28571428571428" height="30" as="geometry" />
        </mxCell>
        <mxCell id="ESTctOifAB1JOvWOm2H_-81" value="" style="rounded=0;whiteSpace=wrap;html=1;" parent="1" vertex="1">
          <mxGeometry x="1190" y="650" width="170" height="40" as="geometry" />
        </mxCell>
        <mxCell id="ESTctOifAB1JOvWOm2H_-82" value="CLassroom_number_in" style="text;html=1;strokeColor=none;fillColor=none;align=center;verticalAlign=middle;whiteSpace=wrap;rounded=0;" parent="1" vertex="1">
          <mxGeometry x="1230" y="655" width="60" height="30" as="geometry" />
        </mxCell>
        <mxCell id="ESTctOifAB1JOvWOm2H_-83" value="" style="shape=table;startSize=0;container=1;collapsible=0;childLayout=tableLayout;" parent="1" vertex="1">
          <mxGeometry x="230" y="750" width="430" height="40" as="geometry" />
        </mxCell>
        <mxCell id="ESTctOifAB1JOvWOm2H_-84" value="" style="shape=tableRow;horizontal=0;startSize=0;swimlaneHead=0;swimlaneBody=0;strokeColor=inherit;top=0;left=0;bottom=0;right=0;collapsible=0;dropTarget=0;fillColor=none;points=[[0,0.5],[1,0.5]];portConstraint=eastwest;" parent="ESTctOifAB1JOvWOm2H_-83" vertex="1">
          <mxGeometry width="430" height="40" as="geometry" />
        </mxCell>
        <mxCell id="ESTctOifAB1JOvWOm2H_-85" value="&lt;u&gt;Session_number&lt;/u&gt;" style="shape=partialRectangle;html=1;whiteSpace=wrap;connectable=0;strokeColor=inherit;overflow=hidden;fillColor=none;top=0;left=0;bottom=0;right=0;pointerEvents=1;" parent="ESTctOifAB1JOvWOm2H_-84" vertex="1">
          <mxGeometry width="110" height="40" as="geometry">
            <mxRectangle width="110" height="40" as="alternateBounds" />
          </mxGeometry>
        </mxCell>
        <mxCell id="ESTctOifAB1JOvWOm2H_-86" value="&lt;u style=&quot;border-color: var(--border-color);&quot;&gt;Class_name&lt;/u&gt;" style="shape=partialRectangle;html=1;whiteSpace=wrap;connectable=0;strokeColor=inherit;overflow=hidden;fillColor=none;top=0;left=0;bottom=0;right=0;pointerEvents=1;" parent="ESTctOifAB1JOvWOm2H_-84" vertex="1">
          <mxGeometry x="110" width="74" height="40" as="geometry">
            <mxRectangle width="74" height="40" as="alternateBounds" />
          </mxGeometry>
        </mxCell>
        <mxCell id="ESTctOifAB1JOvWOm2H_-87" value="&lt;span style=&quot;border-color: var(--border-color);&quot;&gt;Teacher_ID&lt;/span&gt;" style="shape=partialRectangle;html=1;whiteSpace=wrap;connectable=0;strokeColor=inherit;overflow=hidden;fillColor=none;top=0;left=0;bottom=0;right=0;pointerEvents=1;" parent="ESTctOifAB1JOvWOm2H_-84" vertex="1">
          <mxGeometry x="184" width="66" height="40" as="geometry">
            <mxRectangle width="66" height="40" as="alternateBounds" />
          </mxGeometry>
        </mxCell>
        <mxCell id="ESTctOifAB1JOvWOm2H_-88" value="Note" style="shape=partialRectangle;html=1;whiteSpace=wrap;connectable=0;strokeColor=inherit;overflow=hidden;fillColor=none;top=0;left=0;bottom=0;right=0;pointerEvents=1;" parent="ESTctOifAB1JOvWOm2H_-84" vertex="1">
          <mxGeometry x="250" width="70" height="40" as="geometry">
            <mxRectangle width="70" height="40" as="alternateBounds" />
          </mxGeometry>
        </mxCell>
        <mxCell id="ESTctOifAB1JOvWOm2H_-89" value="Status" style="shape=partialRectangle;html=1;whiteSpace=wrap;connectable=0;strokeColor=inherit;overflow=hidden;fillColor=none;top=0;left=0;bottom=0;right=0;pointerEvents=1;" parent="ESTctOifAB1JOvWOm2H_-84" vertex="1">
          <mxGeometry x="320" width="110" height="40" as="geometry">
            <mxRectangle width="110" height="40" as="alternateBounds" />
          </mxGeometry>
        </mxCell>
        <mxCell id="ESTctOifAB1JOvWOm2H_-90" value="&lt;b&gt;TEACHER_RESPONSIBLE&lt;/b&gt;" style="text;html=1;strokeColor=none;fillColor=none;align=center;verticalAlign=middle;whiteSpace=wrap;rounded=0;" parent="1" vertex="1">
          <mxGeometry x="230" y="720" width="90" height="30" as="geometry" />
        </mxCell>
        <mxCell id="ESTctOifAB1JOvWOm2H_-91" value="" style="shape=table;startSize=0;container=1;collapsible=0;childLayout=tableLayout;" parent="1" vertex="1">
          <mxGeometry x="220" y="850" width="430" height="40" as="geometry" />
        </mxCell>
        <mxCell id="ESTctOifAB1JOvWOm2H_-92" value="" style="shape=tableRow;horizontal=0;startSize=0;swimlaneHead=0;swimlaneBody=0;strokeColor=inherit;top=0;left=0;bottom=0;right=0;collapsible=0;dropTarget=0;fillColor=none;points=[[0,0.5],[1,0.5]];portConstraint=eastwest;" parent="ESTctOifAB1JOvWOm2H_-91" vertex="1">
          <mxGeometry width="430" height="40" as="geometry" />
        </mxCell>
        <mxCell id="ESTctOifAB1JOvWOm2H_-93" value="&lt;u&gt;Session_number&lt;/u&gt;" style="shape=partialRectangle;html=1;whiteSpace=wrap;connectable=0;strokeColor=inherit;overflow=hidden;fillColor=none;top=0;left=0;bottom=0;right=0;pointerEvents=1;" parent="ESTctOifAB1JOvWOm2H_-92" vertex="1">
          <mxGeometry width="110" height="40" as="geometry">
            <mxRectangle width="110" height="40" as="alternateBounds" />
          </mxGeometry>
        </mxCell>
        <mxCell id="ESTctOifAB1JOvWOm2H_-94" value="&lt;u style=&quot;border-color: var(--border-color);&quot;&gt;Class_name&lt;/u&gt;" style="shape=partialRectangle;html=1;whiteSpace=wrap;connectable=0;strokeColor=inherit;overflow=hidden;fillColor=none;top=0;left=0;bottom=0;right=0;pointerEvents=1;" parent="ESTctOifAB1JOvWOm2H_-92" vertex="1">
          <mxGeometry x="110" width="74" height="40" as="geometry">
            <mxRectangle width="74" height="40" as="alternateBounds" />
          </mxGeometry>
        </mxCell>
        <mxCell id="ESTctOifAB1JOvWOm2H_-95" value="&lt;span style=&quot;border-color: var(--border-color);&quot;&gt;Supervisor_ID&lt;/span&gt;" style="shape=partialRectangle;html=1;whiteSpace=wrap;connectable=0;strokeColor=inherit;overflow=hidden;fillColor=none;top=0;left=0;bottom=0;right=0;pointerEvents=1;" parent="ESTctOifAB1JOvWOm2H_-92" vertex="1">
          <mxGeometry x="184" width="86" height="40" as="geometry">
            <mxRectangle width="86" height="40" as="alternateBounds" />
          </mxGeometry>
        </mxCell>
        <mxCell id="ESTctOifAB1JOvWOm2H_-96" value="Note_for_class" style="shape=partialRectangle;html=1;whiteSpace=wrap;connectable=0;strokeColor=inherit;overflow=hidden;fillColor=none;top=0;left=0;bottom=0;right=0;pointerEvents=1;" parent="ESTctOifAB1JOvWOm2H_-92" vertex="1">
          <mxGeometry x="270" width="110" height="40" as="geometry">
            <mxRectangle width="110" height="40" as="alternateBounds" />
          </mxGeometry>
        </mxCell>
        <mxCell id="ESTctOifAB1JOvWOm2H_-97" value="" style="shape=partialRectangle;html=1;whiteSpace=wrap;connectable=0;strokeColor=inherit;overflow=hidden;fillColor=none;top=0;left=0;bottom=0;right=0;pointerEvents=1;" parent="ESTctOifAB1JOvWOm2H_-92" vertex="1">
          <mxGeometry x="380" width="50" height="40" as="geometry">
            <mxRectangle width="50" height="40" as="alternateBounds" />
          </mxGeometry>
        </mxCell>
        <mxCell id="ESTctOifAB1JOvWOm2H_-98" value="&lt;b&gt;SUPERVISOR_RESPONSIBLE&lt;/b&gt;" style="text;html=1;strokeColor=none;fillColor=none;align=center;verticalAlign=middle;whiteSpace=wrap;rounded=0;" parent="1" vertex="1">
          <mxGeometry x="220" y="820" width="90" height="30" as="geometry" />
        </mxCell>
        <mxCell id="ESTctOifAB1JOvWOm2H_-99" value="" style="shape=table;startSize=0;container=1;collapsible=0;childLayout=tableLayout;" parent="1" vertex="1">
          <mxGeometry x="210" y="940" width="430" height="40" as="geometry" />
        </mxCell>
        <mxCell id="ESTctOifAB1JOvWOm2H_-100" value="" style="shape=tableRow;horizontal=0;startSize=0;swimlaneHead=0;swimlaneBody=0;strokeColor=inherit;top=0;left=0;bottom=0;right=0;collapsible=0;dropTarget=0;fillColor=none;points=[[0,0.5],[1,0.5]];portConstraint=eastwest;" parent="ESTctOifAB1JOvWOm2H_-99" vertex="1">
          <mxGeometry width="430" height="40" as="geometry" />
        </mxCell>
        <mxCell id="ESTctOifAB1JOvWOm2H_-101" value="&lt;u&gt;Session_number&lt;/u&gt;" style="shape=partialRectangle;html=1;whiteSpace=wrap;connectable=0;strokeColor=inherit;overflow=hidden;fillColor=none;top=0;left=0;bottom=0;right=0;pointerEvents=1;" parent="ESTctOifAB1JOvWOm2H_-100" vertex="1">
          <mxGeometry width="110" height="40" as="geometry">
            <mxRectangle width="110" height="40" as="alternateBounds" />
          </mxGeometry>
        </mxCell>
        <mxCell id="ESTctOifAB1JOvWOm2H_-102" value="&lt;u style=&quot;border-color: var(--border-color);&quot;&gt;Class_name&lt;/u&gt;" style="shape=partialRectangle;html=1;whiteSpace=wrap;connectable=0;strokeColor=inherit;overflow=hidden;fillColor=none;top=0;left=0;bottom=0;right=0;pointerEvents=1;" parent="ESTctOifAB1JOvWOm2H_-100" vertex="1">
          <mxGeometry x="110" width="74" height="40" as="geometry">
            <mxRectangle width="74" height="40" as="alternateBounds" />
          </mxGeometry>
        </mxCell>
        <mxCell id="ESTctOifAB1JOvWOm2H_-103" value="&lt;span style=&quot;border-color: var(--border-color);&quot;&gt;&lt;u&gt;Student_ssn&lt;/u&gt;&lt;/span&gt;" style="shape=partialRectangle;html=1;whiteSpace=wrap;connectable=0;strokeColor=inherit;overflow=hidden;fillColor=none;top=0;left=0;bottom=0;right=0;pointerEvents=1;" parent="ESTctOifAB1JOvWOm2H_-100" vertex="1">
          <mxGeometry x="184" width="86" height="40" as="geometry">
            <mxRectangle width="86" height="40" as="alternateBounds" />
          </mxGeometry>
        </mxCell>
        <mxCell id="ESTctOifAB1JOvWOm2H_-104" value="Note" style="shape=partialRectangle;html=1;whiteSpace=wrap;connectable=0;strokeColor=inherit;overflow=hidden;fillColor=none;top=0;left=0;bottom=0;right=0;pointerEvents=1;" parent="ESTctOifAB1JOvWOm2H_-100" vertex="1">
          <mxGeometry x="270" width="50" height="40" as="geometry">
            <mxRectangle width="50" height="40" as="alternateBounds" />
          </mxGeometry>
        </mxCell>
        <mxCell id="ESTctOifAB1JOvWOm2H_-105" value="Status" style="shape=partialRectangle;html=1;whiteSpace=wrap;connectable=0;strokeColor=inherit;overflow=hidden;fillColor=none;top=0;left=0;bottom=0;right=0;pointerEvents=1;" parent="ESTctOifAB1JOvWOm2H_-100" vertex="1">
          <mxGeometry x="320" width="110" height="40" as="geometry">
            <mxRectangle width="110" height="40" as="alternateBounds" />
          </mxGeometry>
        </mxCell>
        <mxCell id="ESTctOifAB1JOvWOm2H_-106" value="&lt;b&gt;STUDENT_ATTENDANCE&lt;/b&gt;" style="text;html=1;strokeColor=none;fillColor=none;align=center;verticalAlign=middle;whiteSpace=wrap;rounded=0;" parent="1" vertex="1">
          <mxGeometry x="210" y="910" width="90" height="30" as="geometry" />
        </mxCell>
        <mxCell id="ESTctOifAB1JOvWOm2H_-107" value="" style="shape=table;startSize=0;container=1;collapsible=0;childLayout=tableLayout;" parent="1" vertex="1">
          <mxGeometry x="210" y="1120" width="430" height="40" as="geometry" />
        </mxCell>
        <mxCell id="ESTctOifAB1JOvWOm2H_-108" value="" style="shape=tableRow;horizontal=0;startSize=0;swimlaneHead=0;swimlaneBody=0;strokeColor=inherit;top=0;left=0;bottom=0;right=0;collapsible=0;dropTarget=0;fillColor=none;points=[[0,0.5],[1,0.5]];portConstraint=eastwest;" parent="ESTctOifAB1JOvWOm2H_-107" vertex="1">
          <mxGeometry width="430" height="40" as="geometry" />
        </mxCell>
        <mxCell id="ESTctOifAB1JOvWOm2H_-109" value="&lt;u style=&quot;border-color: var(--border-color);&quot;&gt;Student_ssn&lt;/u&gt;" style="shape=partialRectangle;html=1;whiteSpace=wrap;connectable=0;strokeColor=inherit;overflow=hidden;fillColor=none;top=0;left=0;bottom=0;right=0;pointerEvents=1;" parent="ESTctOifAB1JOvWOm2H_-108" vertex="1">
          <mxGeometry width="110" height="40" as="geometry">
            <mxRectangle width="110" height="40" as="alternateBounds" />
          </mxGeometry>
        </mxCell>
        <mxCell id="ESTctOifAB1JOvWOm2H_-110" value="&lt;u style=&quot;border-color: var(--border-color);&quot;&gt;Class_name&lt;/u&gt;" style="shape=partialRectangle;html=1;whiteSpace=wrap;connectable=0;strokeColor=inherit;overflow=hidden;fillColor=none;top=0;left=0;bottom=0;right=0;pointerEvents=1;" parent="ESTctOifAB1JOvWOm2H_-108" vertex="1">
          <mxGeometry x="110" width="74" height="40" as="geometry">
            <mxRectangle width="74" height="40" as="alternateBounds" />
          </mxGeometry>
        </mxCell>
        <mxCell id="ESTctOifAB1JOvWOm2H_-111" value="" style="shape=partialRectangle;html=1;whiteSpace=wrap;connectable=0;strokeColor=inherit;overflow=hidden;fillColor=none;top=0;left=0;bottom=0;right=0;pointerEvents=1;" parent="ESTctOifAB1JOvWOm2H_-108" vertex="1">
          <mxGeometry x="184" width="86" height="40" as="geometry">
            <mxRectangle width="86" height="40" as="alternateBounds" />
          </mxGeometry>
        </mxCell>
        <mxCell id="ESTctOifAB1JOvWOm2H_-112" value="" style="shape=partialRectangle;html=1;whiteSpace=wrap;connectable=0;strokeColor=inherit;overflow=hidden;fillColor=none;top=0;left=0;bottom=0;right=0;pointerEvents=1;" parent="ESTctOifAB1JOvWOm2H_-108" vertex="1">
          <mxGeometry x="270" width="50" height="40" as="geometry">
            <mxRectangle width="50" height="40" as="alternateBounds" />
          </mxGeometry>
        </mxCell>
        <mxCell id="ESTctOifAB1JOvWOm2H_-113" value="" style="shape=partialRectangle;html=1;whiteSpace=wrap;connectable=0;strokeColor=inherit;overflow=hidden;fillColor=none;top=0;left=0;bottom=0;right=0;pointerEvents=1;" parent="ESTctOifAB1JOvWOm2H_-108" vertex="1">
          <mxGeometry x="320" width="110" height="40" as="geometry">
            <mxRectangle width="110" height="40" as="alternateBounds" />
          </mxGeometry>
        </mxCell>
        <mxCell id="ESTctOifAB1JOvWOm2H_-114" value="&lt;b&gt;IN_CLASS&lt;/b&gt;" style="text;html=1;strokeColor=none;fillColor=none;align=center;verticalAlign=middle;whiteSpace=wrap;rounded=0;" parent="1" vertex="1">
          <mxGeometry x="210" y="1090" width="90" height="30" as="geometry" />
        </mxCell>
        <mxCell id="ESTctOifAB1JOvWOm2H_-115" value="" style="shape=table;startSize=0;container=1;collapsible=0;childLayout=tableLayout;" parent="1" vertex="1">
          <mxGeometry x="210" y="1240" width="430" height="40" as="geometry" />
        </mxCell>
        <mxCell id="ESTctOifAB1JOvWOm2H_-116" value="" style="shape=tableRow;horizontal=0;startSize=0;swimlaneHead=0;swimlaneBody=0;strokeColor=inherit;top=0;left=0;bottom=0;right=0;collapsible=0;dropTarget=0;fillColor=none;points=[[0,0.5],[1,0.5]];portConstraint=eastwest;" parent="ESTctOifAB1JOvWOm2H_-115" vertex="1">
          <mxGeometry width="430" height="40" as="geometry" />
        </mxCell>
        <mxCell id="ESTctOifAB1JOvWOm2H_-117" value="&lt;u style=&quot;border-color: var(--border-color);&quot;&gt;Teacher_ID&lt;/u&gt;" style="shape=partialRectangle;html=1;whiteSpace=wrap;connectable=0;strokeColor=inherit;overflow=hidden;fillColor=none;top=0;left=0;bottom=0;right=0;pointerEvents=1;" parent="ESTctOifAB1JOvWOm2H_-116" vertex="1">
          <mxGeometry width="110" height="40" as="geometry">
            <mxRectangle width="110" height="40" as="alternateBounds" />
          </mxGeometry>
        </mxCell>
        <mxCell id="ESTctOifAB1JOvWOm2H_-118" value="&lt;u style=&quot;border-color: var(--border-color);&quot;&gt;Class_name&lt;/u&gt;" style="shape=partialRectangle;html=1;whiteSpace=wrap;connectable=0;strokeColor=inherit;overflow=hidden;fillColor=none;top=0;left=0;bottom=0;right=0;pointerEvents=1;" parent="ESTctOifAB1JOvWOm2H_-116" vertex="1">
          <mxGeometry x="110" width="74" height="40" as="geometry">
            <mxRectangle width="74" height="40" as="alternateBounds" />
          </mxGeometry>
        </mxCell>
        <mxCell id="ESTctOifAB1JOvWOm2H_-119" value="" style="shape=partialRectangle;html=1;whiteSpace=wrap;connectable=0;strokeColor=inherit;overflow=hidden;fillColor=none;top=0;left=0;bottom=0;right=0;pointerEvents=1;" parent="ESTctOifAB1JOvWOm2H_-116" vertex="1">
          <mxGeometry x="184" width="86" height="40" as="geometry">
            <mxRectangle width="86" height="40" as="alternateBounds" />
          </mxGeometry>
        </mxCell>
        <mxCell id="ESTctOifAB1JOvWOm2H_-120" value="" style="shape=partialRectangle;html=1;whiteSpace=wrap;connectable=0;strokeColor=inherit;overflow=hidden;fillColor=none;top=0;left=0;bottom=0;right=0;pointerEvents=1;" parent="ESTctOifAB1JOvWOm2H_-116" vertex="1">
          <mxGeometry x="270" width="50" height="40" as="geometry">
            <mxRectangle width="50" height="40" as="alternateBounds" />
          </mxGeometry>
        </mxCell>
        <mxCell id="ESTctOifAB1JOvWOm2H_-121" value="" style="shape=partialRectangle;html=1;whiteSpace=wrap;connectable=0;strokeColor=inherit;overflow=hidden;fillColor=none;top=0;left=0;bottom=0;right=0;pointerEvents=1;" parent="ESTctOifAB1JOvWOm2H_-116" vertex="1">
          <mxGeometry x="320" width="110" height="40" as="geometry">
            <mxRectangle width="110" height="40" as="alternateBounds" />
          </mxGeometry>
        </mxCell>
        <mxCell id="ESTctOifAB1JOvWOm2H_-122" value="&lt;b&gt;TEACH&lt;/b&gt;" style="text;html=1;strokeColor=none;fillColor=none;align=center;verticalAlign=middle;whiteSpace=wrap;rounded=0;" parent="1" vertex="1">
          <mxGeometry x="200" y="1210" width="90" height="30" as="geometry" />
        </mxCell>
        <mxCell id="ESTctOifAB1JOvWOm2H_-219" value="" style="shape=table;startSize=0;container=1;collapsible=0;childLayout=tableLayout;" parent="1" vertex="1">
          <mxGeometry x="190" y="-130" width="682" height="40" as="geometry" />
        </mxCell>
        <mxCell id="ESTctOifAB1JOvWOm2H_-220" value="" style="shape=tableRow;horizontal=0;startSize=0;swimlaneHead=0;swimlaneBody=0;strokeColor=inherit;top=0;left=0;bottom=0;right=0;collapsible=0;dropTarget=0;fillColor=none;points=[[0,0.5],[1,0.5]];portConstraint=eastwest;" parent="ESTctOifAB1JOvWOm2H_-219" vertex="1">
          <mxGeometry width="682" height="40" as="geometry" />
        </mxCell>
        <mxCell id="ESTctOifAB1JOvWOm2H_-221" value="&lt;u&gt;ID&lt;/u&gt;" style="shape=partialRectangle;html=1;whiteSpace=wrap;connectable=0;strokeColor=inherit;overflow=hidden;fillColor=none;top=0;left=0;bottom=0;right=0;pointerEvents=1;" parent="ESTctOifAB1JOvWOm2H_-220" vertex="1">
          <mxGeometry width="62" height="40" as="geometry">
            <mxRectangle width="62" height="40" as="alternateBounds" />
          </mxGeometry>
        </mxCell>
        <mxCell id="ESTctOifAB1JOvWOm2H_-222" value="Name" style="shape=partialRectangle;html=1;whiteSpace=wrap;connectable=0;strokeColor=inherit;overflow=hidden;fillColor=none;top=0;left=0;bottom=0;right=0;pointerEvents=1;" parent="ESTctOifAB1JOvWOm2H_-220" vertex="1">
          <mxGeometry x="62" width="62" height="40" as="geometry">
            <mxRectangle width="62" height="40" as="alternateBounds" />
          </mxGeometry>
        </mxCell>
        <mxCell id="ESTctOifAB1JOvWOm2H_-223" value="Phone" style="shape=partialRectangle;html=1;whiteSpace=wrap;connectable=0;strokeColor=inherit;overflow=hidden;fillColor=none;top=0;left=0;bottom=0;right=0;pointerEvents=1;" parent="ESTctOifAB1JOvWOm2H_-220" vertex="1">
          <mxGeometry x="124" width="62" height="40" as="geometry">
            <mxRectangle width="62" height="40" as="alternateBounds" />
          </mxGeometry>
        </mxCell>
        <mxCell id="ESTctOifAB1JOvWOm2H_-224" value="Username" style="shape=partialRectangle;html=1;whiteSpace=wrap;connectable=0;strokeColor=inherit;overflow=hidden;fillColor=none;top=0;left=0;bottom=0;right=0;pointerEvents=1;" parent="ESTctOifAB1JOvWOm2H_-220" vertex="1">
          <mxGeometry x="186" width="62" height="40" as="geometry">
            <mxRectangle width="62" height="40" as="alternateBounds" />
          </mxGeometry>
        </mxCell>
        <mxCell id="ESTctOifAB1JOvWOm2H_-225" value="Password" style="shape=partialRectangle;html=1;whiteSpace=wrap;connectable=0;strokeColor=inherit;overflow=hidden;fillColor=none;top=0;left=0;bottom=0;right=0;pointerEvents=1;" parent="ESTctOifAB1JOvWOm2H_-220" vertex="1">
          <mxGeometry x="248" width="62" height="40" as="geometry">
            <mxRectangle width="62" height="40" as="alternateBounds" />
          </mxGeometry>
        </mxCell>
        <mxCell id="ESTctOifAB1JOvWOm2H_-226" value="Birthday" style="shape=partialRectangle;html=1;whiteSpace=wrap;connectable=0;strokeColor=inherit;overflow=hidden;fillColor=none;top=0;left=0;bottom=0;right=0;pointerEvents=1;" parent="ESTctOifAB1JOvWOm2H_-220" vertex="1">
          <mxGeometry x="310" width="62" height="40" as="geometry">
            <mxRectangle width="62" height="40" as="alternateBounds" />
          </mxGeometry>
        </mxCell>
        <mxCell id="ESTctOifAB1JOvWOm2H_-227" value="Birthplace" style="shape=partialRectangle;html=1;whiteSpace=wrap;connectable=0;strokeColor=inherit;overflow=hidden;fillColor=none;top=0;left=0;bottom=0;right=0;pointerEvents=1;" parent="ESTctOifAB1JOvWOm2H_-220" vertex="1">
          <mxGeometry x="372" width="62" height="40" as="geometry">
            <mxRectangle width="62" height="40" as="alternateBounds" />
          </mxGeometry>
        </mxCell>
        <mxCell id="ESTctOifAB1JOvWOm2H_-228" value="Email" style="shape=partialRectangle;html=1;whiteSpace=wrap;connectable=0;strokeColor=inherit;overflow=hidden;fillColor=none;top=0;left=0;bottom=0;right=0;pointerEvents=1;" parent="ESTctOifAB1JOvWOm2H_-220" vertex="1">
          <mxGeometry x="434" width="20" height="40" as="geometry">
            <mxRectangle width="20" height="40" as="alternateBounds" />
          </mxGeometry>
        </mxCell>
        <mxCell id="ESTctOifAB1JOvWOm2H_-229" value="Address" style="shape=partialRectangle;html=1;whiteSpace=wrap;connectable=0;strokeColor=inherit;overflow=hidden;fillColor=none;top=0;left=0;bottom=0;right=0;pointerEvents=1;" parent="ESTctOifAB1JOvWOm2H_-220" vertex="1">
          <mxGeometry x="454" width="104" height="40" as="geometry">
            <mxRectangle width="104" height="40" as="alternateBounds" />
          </mxGeometry>
        </mxCell>
        <mxCell id="ESTctOifAB1JOvWOm2H_-230" value="SSN" style="shape=partialRectangle;html=1;whiteSpace=wrap;connectable=0;strokeColor=inherit;overflow=hidden;fillColor=none;top=0;left=0;bottom=0;right=0;pointerEvents=1;" parent="ESTctOifAB1JOvWOm2H_-220" vertex="1">
          <mxGeometry x="558" width="62" height="40" as="geometry">
            <mxRectangle width="62" height="40" as="alternateBounds" />
          </mxGeometry>
        </mxCell>
        <mxCell id="ESTctOifAB1JOvWOm2H_-231" value="" style="shape=partialRectangle;html=1;whiteSpace=wrap;connectable=0;strokeColor=inherit;overflow=hidden;fillColor=none;top=0;left=0;bottom=0;right=0;pointerEvents=1;" parent="ESTctOifAB1JOvWOm2H_-220" vertex="1">
          <mxGeometry x="620" width="62" height="40" as="geometry">
            <mxRectangle width="62" height="40" as="alternateBounds" />
          </mxGeometry>
        </mxCell>
        <mxCell id="ESTctOifAB1JOvWOm2H_-232" value="&lt;b&gt;EMPLOYEE&lt;/b&gt;" style="text;html=1;strokeColor=none;fillColor=none;align=center;verticalAlign=middle;whiteSpace=wrap;rounded=0;" parent="1" vertex="1">
          <mxGeometry x="190" y="-160" width="70" height="30" as="geometry" />
        </mxCell>
        <mxCell id="ESTctOifAB1JOvWOm2H_-233" value="" style="shape=table;startSize=0;container=1;collapsible=0;childLayout=tableLayout;" parent="1" vertex="1">
          <mxGeometry x="239" y="30" width="70" height="40" as="geometry" />
        </mxCell>
        <mxCell id="ESTctOifAB1JOvWOm2H_-234" value="" style="shape=tableRow;horizontal=0;startSize=0;swimlaneHead=0;swimlaneBody=0;strokeColor=inherit;top=0;left=0;bottom=0;right=0;collapsible=0;dropTarget=0;fillColor=none;points=[[0,0.5],[1,0.5]];portConstraint=eastwest;" parent="ESTctOifAB1JOvWOm2H_-233" vertex="1">
          <mxGeometry width="70" height="40" as="geometry" />
        </mxCell>
        <mxCell id="ESTctOifAB1JOvWOm2H_-235" value="&lt;u&gt;ID&lt;/u&gt;" style="shape=partialRectangle;html=1;whiteSpace=wrap;connectable=0;strokeColor=inherit;overflow=hidden;fillColor=none;top=0;left=0;bottom=0;right=0;pointerEvents=1;" parent="ESTctOifAB1JOvWOm2H_-234" vertex="1">
          <mxGeometry width="70" height="40" as="geometry">
            <mxRectangle width="70" height="40" as="alternateBounds" />
          </mxGeometry>
        </mxCell>
        <mxCell id="ESTctOifAB1JOvWOm2H_-236" value="&lt;b&gt;ADMIN&lt;/b&gt;" style="text;html=1;strokeColor=none;fillColor=none;align=center;verticalAlign=middle;whiteSpace=wrap;rounded=0;" parent="1" vertex="1">
          <mxGeometry x="254" y="-10" width="40" height="30" as="geometry" />
        </mxCell>
        <mxCell id="ESTctOifAB1JOvWOm2H_-243" value="&lt;b&gt;TEACHER&lt;/b&gt;" style="text;html=1;strokeColor=none;fillColor=none;align=center;verticalAlign=middle;whiteSpace=wrap;rounded=0;" parent="1" vertex="1">
          <mxGeometry x="380" width="60" height="30" as="geometry" />
        </mxCell>
        <mxCell id="ESTctOifAB1JOvWOm2H_-244" value="" style="shape=table;startSize=0;container=1;collapsible=0;childLayout=tableLayout;" parent="1" vertex="1">
          <mxGeometry x="740" y="30" width="60" height="40" as="geometry" />
        </mxCell>
        <mxCell id="ESTctOifAB1JOvWOm2H_-245" value="" style="shape=tableRow;horizontal=0;startSize=0;swimlaneHead=0;swimlaneBody=0;strokeColor=inherit;top=0;left=0;bottom=0;right=0;collapsible=0;dropTarget=0;fillColor=none;points=[[0,0.5],[1,0.5]];portConstraint=eastwest;" parent="ESTctOifAB1JOvWOm2H_-244" vertex="1">
          <mxGeometry width="60" height="40" as="geometry" />
        </mxCell>
        <mxCell id="ESTctOifAB1JOvWOm2H_-246" value="&lt;u&gt;ID&lt;/u&gt;" style="shape=partialRectangle;html=1;whiteSpace=wrap;connectable=0;strokeColor=inherit;overflow=hidden;fillColor=none;top=0;left=0;bottom=0;right=0;pointerEvents=1;" parent="ESTctOifAB1JOvWOm2H_-245" vertex="1">
          <mxGeometry width="60" height="40" as="geometry">
            <mxRectangle width="60" height="40" as="alternateBounds" />
          </mxGeometry>
        </mxCell>
        <mxCell id="ESTctOifAB1JOvWOm2H_-247" value="&lt;b&gt;SUPERVISOR&lt;/b&gt;" style="text;html=1;strokeColor=none;fillColor=none;align=center;verticalAlign=middle;whiteSpace=wrap;rounded=0;" parent="1" vertex="1">
          <mxGeometry x="740" width="80" height="30" as="geometry" />
        </mxCell>
        <mxCell id="ESTctOifAB1JOvWOm2H_-248" value="" style="endArrow=none;html=1;rounded=0;" parent="1" edge="1">
          <mxGeometry width="50" height="50" relative="1" as="geometry">
            <mxPoint x="420" y="72" as="sourcePoint" />
            <mxPoint x="220" y="110" as="targetPoint" />
            <Array as="points">
              <mxPoint x="420" y="110" />
            </Array>
          </mxGeometry>
        </mxCell>
        <mxCell id="ESTctOifAB1JOvWOm2H_-249" value="" style="endArrow=none;html=1;rounded=0;entryX=0.654;entryY=1.061;entryDx=0;entryDy=0;entryPerimeter=0;" parent="1" target="ESTctOifAB1JOvWOm2H_-245" edge="1">
          <mxGeometry width="50" height="50" relative="1" as="geometry">
            <mxPoint x="420" y="110" as="sourcePoint" />
            <mxPoint x="610" y="130" as="targetPoint" />
            <Array as="points">
              <mxPoint x="779" y="110" />
            </Array>
          </mxGeometry>
        </mxCell>
        <mxCell id="ESTctOifAB1JOvWOm2H_-253" value="" style="rounded=0;whiteSpace=wrap;html=1;" parent="1" vertex="1">
          <mxGeometry x="369" y="30" width="90" height="40" as="geometry" />
        </mxCell>
        <mxCell id="ESTctOifAB1JOvWOm2H_-254" value="&lt;u&gt;ID&lt;/u&gt;" style="text;html=1;strokeColor=none;fillColor=none;align=center;verticalAlign=middle;whiteSpace=wrap;rounded=0;" parent="1" vertex="1">
          <mxGeometry x="384" y="40" width="60" height="30" as="geometry" />
        </mxCell>
        <mxCell id="ESTctOifAB1JOvWOm2H_-255" value="" style="endArrow=none;html=1;rounded=0;exitX=0.4;exitY=1.05;exitDx=0;exitDy=0;exitPerimeter=0;" parent="1" source="ESTctOifAB1JOvWOm2H_-234" edge="1">
          <mxGeometry width="50" height="50" relative="1" as="geometry">
            <mxPoint x="560" y="30" as="sourcePoint" />
            <mxPoint x="267" y="110" as="targetPoint" />
          </mxGeometry>
        </mxCell>
        <mxCell id="ESTctOifAB1JOvWOm2H_-257" value="" style="endArrow=classic;html=1;rounded=0;entryX=0.007;entryY=1.05;entryDx=0;entryDy=0;entryPerimeter=0;" parent="1" target="ESTctOifAB1JOvWOm2H_-220" edge="1">
          <mxGeometry width="50" height="50" relative="1" as="geometry">
            <mxPoint x="220" y="110" as="sourcePoint" />
            <mxPoint x="610" y="-20" as="targetPoint" />
          </mxGeometry>
        </mxCell>
        <mxCell id="ESTctOifAB1JOvWOm2H_-264" value="" style="endArrow=classic;html=1;rounded=0;exitX=0.347;exitY=1;exitDx=0;exitDy=0;exitPerimeter=0;entryX=0.224;entryY=1;entryDx=0;entryDy=0;entryPerimeter=0;" parent="1" source="ESTctOifAB1JOvWOm2H_-108" target="ESTctOifAB1JOvWOm2H_-31" edge="1">
          <mxGeometry width="50" height="50" relative="1" as="geometry">
            <mxPoint x="470" y="1030" as="sourcePoint" />
            <mxPoint x="120" y="820" as="targetPoint" />
            <Array as="points">
              <mxPoint x="359" y="1200" />
              <mxPoint x="100" y="1210" />
              <mxPoint x="100" y="620" />
              <mxPoint x="390" y="620" />
            </Array>
          </mxGeometry>
        </mxCell>
        <mxCell id="ESTctOifAB1JOvWOm2H_-265" value="" style="endArrow=none;html=1;rounded=0;exitX=0.344;exitY=-0.025;exitDx=0;exitDy=0;exitPerimeter=0;" parent="1" source="ESTctOifAB1JOvWOm2H_-116" edge="1">
          <mxGeometry width="50" height="50" relative="1" as="geometry">
            <mxPoint x="470" y="1210" as="sourcePoint" />
            <mxPoint x="360" y="1200" as="targetPoint" />
          </mxGeometry>
        </mxCell>
        <mxCell id="ESTctOifAB1JOvWOm2H_-266" value="" style="endArrow=classic;html=1;rounded=0;entryX=0.25;entryY=1;entryDx=0;entryDy=0;exitX=0.109;exitY=1.042;exitDx=0;exitDy=0;exitPerimeter=0;" parent="1" source="ESTctOifAB1JOvWOm2H_-116" target="ESTctOifAB1JOvWOm2H_-254" edge="1">
          <mxGeometry width="50" height="50" relative="1" as="geometry">
            <mxPoint x="261" y="1300" as="sourcePoint" />
            <mxPoint x="520" y="980" as="targetPoint" />
            <Array as="points">
              <mxPoint x="250" y="1360" />
              <mxPoint x="70" y="1350" />
              <mxPoint x="70" y="160" />
              <mxPoint x="399" y="160" />
            </Array>
          </mxGeometry>
        </mxCell>
        <mxCell id="ESTctOifAB1JOvWOm2H_-267" value="" style="endArrow=classic;html=1;rounded=0;exitX=0.116;exitY=1;exitDx=0;exitDy=0;exitPerimeter=0;entryX=0.038;entryY=1.1;entryDx=0;entryDy=0;entryPerimeter=0;" parent="1" source="ESTctOifAB1JOvWOm2H_-108" target="ESTctOifAB1JOvWOm2H_-18" edge="1">
          <mxGeometry width="50" height="50" relative="1" as="geometry">
            <mxPoint x="380" y="930" as="sourcePoint" />
            <mxPoint x="430" y="880" as="targetPoint" />
            <Array as="points">
              <mxPoint x="260" y="1180" />
              <mxPoint x="140" y="1180" />
              <mxPoint x="140" y="490" />
              <mxPoint x="256" y="490" />
            </Array>
          </mxGeometry>
        </mxCell>
        <mxCell id="ESTctOifAB1JOvWOm2H_-268" value="" style="endArrow=classic;html=1;rounded=0;exitX=0.5;exitY=1;exitDx=0;exitDy=0;entryX=0.193;entryY=1.017;entryDx=0;entryDy=0;entryPerimeter=0;" parent="1" source="ESTctOifAB1JOvWOm2H_-44" target="ESTctOifAB1JOvWOm2H_-31" edge="1">
          <mxGeometry width="50" height="50" relative="1" as="geometry">
            <mxPoint x="380" y="630" as="sourcePoint" />
            <mxPoint x="430" y="580" as="targetPoint" />
            <Array as="points">
              <mxPoint x="368" y="710" />
              <mxPoint x="190" y="710" />
              <mxPoint x="190" y="610" />
              <mxPoint x="368" y="610" />
            </Array>
          </mxGeometry>
        </mxCell>
        <mxCell id="ESTctOifAB1JOvWOm2H_-269" value="" style="endArrow=classic;html=1;rounded=0;entryX=0.5;entryY=1;entryDx=0;entryDy=0;" parent="1" target="ESTctOifAB1JOvWOm2H_-43" edge="1">
          <mxGeometry width="50" height="50" relative="1" as="geometry">
            <mxPoint x="700" y="690" as="sourcePoint" />
            <mxPoint x="430" y="580" as="targetPoint" />
            <Array as="points">
              <mxPoint x="690" y="720" />
              <mxPoint x="490" y="720" />
              <mxPoint x="280" y="720" />
            </Array>
          </mxGeometry>
        </mxCell>
        <mxCell id="ESTctOifAB1JOvWOm2H_-270" value="" style="endArrow=none;html=1;rounded=0;entryX=0.58;entryY=0.975;entryDx=0;entryDy=0;entryPerimeter=0;" parent="1" target="ESTctOifAB1JOvWOm2H_-60" edge="1">
          <mxGeometry width="50" height="50" relative="1" as="geometry">
            <mxPoint x="370" y="710" as="sourcePoint" />
            <mxPoint x="970" y="780" as="targetPoint" />
            <Array as="points">
              <mxPoint x="950" y="710" />
            </Array>
          </mxGeometry>
        </mxCell>
        <mxCell id="ESTctOifAB1JOvWOm2H_-271" value="" style="endArrow=classic;html=1;rounded=0;exitX=0.5;exitY=1;exitDx=0;exitDy=0;entryX=0.196;entryY=1.1;entryDx=0;entryDy=0;entryPerimeter=0;" parent="1" source="ESTctOifAB1JOvWOm2H_-75" target="ESTctOifAB1JOvWOm2H_-2" edge="1">
          <mxGeometry width="50" height="50" relative="1" as="geometry">
            <mxPoint x="1020" y="630" as="sourcePoint" />
            <mxPoint x="1070" y="580" as="targetPoint" />
            <Array as="points">
              <mxPoint x="1140" y="740" />
              <mxPoint x="1530" y="740" />
              <mxPoint x="1530" y="390" />
              <mxPoint x="280" y="390" />
            </Array>
          </mxGeometry>
        </mxCell>
        <mxCell id="ESTctOifAB1JOvWOm2H_-272" value="" style="endArrow=classic;html=1;rounded=0;exitX=0.447;exitY=1.075;exitDx=0;exitDy=0;exitPerimeter=0;entryX=0.2;entryY=1.1;entryDx=0;entryDy=0;entryPerimeter=0;" parent="1" source="ESTctOifAB1JOvWOm2H_-81" target="ESTctOifAB1JOvWOm2H_-11" edge="1">
          <mxGeometry width="50" height="50" relative="1" as="geometry">
            <mxPoint x="1050" y="530" as="sourcePoint" />
            <mxPoint x="1100" y="480" as="targetPoint" />
            <Array as="points">
              <mxPoint x="1266" y="790" />
              <mxPoint x="1720" y="790" />
              <mxPoint x="1730" y="270" />
              <mxPoint x="270" y="260" />
            </Array>
          </mxGeometry>
        </mxCell>
        <mxCell id="ESTctOifAB1JOvWOm2H_-273" value="" style="endArrow=classic;html=1;rounded=0;exitX=0.141;exitY=1.138;exitDx=0;exitDy=0;exitPerimeter=0;entryX=0.25;entryY=1;entryDx=0;entryDy=0;" parent="1" source="ESTctOifAB1JOvWOm2H_-84" target="ESTctOifAB1JOvWOm2H_-43" edge="1">
          <mxGeometry width="50" height="50" relative="1" as="geometry">
            <mxPoint x="460" y="910" as="sourcePoint" />
            <mxPoint x="510" y="860" as="targetPoint" />
            <Array as="points">
              <mxPoint x="291" y="820" />
              <mxPoint x="170" y="820" />
              <mxPoint x="170" y="730" />
              <mxPoint x="255" y="730" />
            </Array>
          </mxGeometry>
        </mxCell>
        <mxCell id="ESTctOifAB1JOvWOm2H_-274" value="" style="endArrow=none;html=1;rounded=0;entryX=0.13;entryY=1.042;entryDx=0;entryDy=0;entryPerimeter=0;" parent="1" target="ESTctOifAB1JOvWOm2H_-100" edge="1">
          <mxGeometry width="50" height="50" relative="1" as="geometry">
            <mxPoint x="170" y="810" as="sourcePoint" />
            <mxPoint x="510" y="860" as="targetPoint" />
            <Array as="points">
              <mxPoint x="170" y="1010" />
              <mxPoint x="266" y="1010" />
            </Array>
          </mxGeometry>
        </mxCell>
        <mxCell id="ESTctOifAB1JOvWOm2H_-275" value="" style="endArrow=none;html=1;rounded=0;exitX=0.118;exitY=1.062;exitDx=0;exitDy=0;exitPerimeter=0;" parent="1" source="ESTctOifAB1JOvWOm2H_-92" edge="1">
          <mxGeometry width="50" height="50" relative="1" as="geometry">
            <mxPoint x="460" y="910" as="sourcePoint" />
            <mxPoint x="170" y="910" as="targetPoint" />
            <Array as="points">
              <mxPoint x="270" y="910" />
            </Array>
          </mxGeometry>
        </mxCell>
        <mxCell id="ESTctOifAB1JOvWOm2H_-276" value="" style="endArrow=none;html=1;rounded=0;entryX=0.363;entryY=1.023;entryDx=0;entryDy=0;entryPerimeter=0;" parent="1" target="ESTctOifAB1JOvWOm2H_-84" edge="1">
          <mxGeometry width="50" height="50" relative="1" as="geometry">
            <mxPoint x="100" y="800" as="sourcePoint" />
            <mxPoint x="510" y="860" as="targetPoint" />
            <Array as="points">
              <mxPoint x="380" y="820" />
            </Array>
          </mxGeometry>
        </mxCell>
        <mxCell id="ESTctOifAB1JOvWOm2H_-277" value="" style="endArrow=none;html=1;rounded=0;" parent="1" edge="1">
          <mxGeometry width="50" height="50" relative="1" as="geometry">
            <mxPoint x="100" y="900" as="sourcePoint" />
            <mxPoint x="380" y="890" as="targetPoint" />
            <Array as="points">
              <mxPoint x="380" y="920" />
            </Array>
          </mxGeometry>
        </mxCell>
        <mxCell id="ESTctOifAB1JOvWOm2H_-278" value="" style="endArrow=none;html=1;rounded=0;entryX=0.338;entryY=1.004;entryDx=0;entryDy=0;entryPerimeter=0;" parent="1" target="ESTctOifAB1JOvWOm2H_-100" edge="1">
          <mxGeometry width="50" height="50" relative="1" as="geometry">
            <mxPoint x="100" y="1090" as="sourcePoint" />
            <mxPoint x="510" y="1010" as="targetPoint" />
            <Array as="points">
              <mxPoint x="355" y="1090" />
              <mxPoint x="355" y="1020" />
            </Array>
          </mxGeometry>
        </mxCell>
        <mxCell id="ESTctOifAB1JOvWOm2H_-279" value="" style="endArrow=classic;html=1;rounded=0;exitX=0.499;exitY=1.023;exitDx=0;exitDy=0;exitPerimeter=0;entryX=1;entryY=1;entryDx=0;entryDy=0;" parent="1" source="ESTctOifAB1JOvWOm2H_-84" target="ESTctOifAB1JOvWOm2H_-254" edge="1">
          <mxGeometry width="50" height="50" relative="1" as="geometry">
            <mxPoint x="460" y="910" as="sourcePoint" />
            <mxPoint x="510" y="860" as="targetPoint" />
            <Array as="points">
              <mxPoint x="440" y="830" />
              <mxPoint x="1900" y="830" />
              <mxPoint x="1910" y="180" />
              <mxPoint x="444" y="180" />
            </Array>
          </mxGeometry>
        </mxCell>
        <mxCell id="ESTctOifAB1JOvWOm2H_-282" value="" style="endArrow=none;html=1;rounded=0;exitX=0.527;exitY=1.081;exitDx=0;exitDy=0;exitPerimeter=0;" parent="1" source="ESTctOifAB1JOvWOm2H_-100" edge="1">
          <mxGeometry width="50" height="50" relative="1" as="geometry">
            <mxPoint x="520" y="910" as="sourcePoint" />
            <mxPoint x="140" y="1040" as="targetPoint" />
            <Array as="points">
              <mxPoint x="437" y="1040" />
            </Array>
          </mxGeometry>
        </mxCell>
        <mxCell id="ESTctOifAB1JOvWOm2H_-283" value="" style="endArrow=classic;html=1;rounded=0;exitX=0.535;exitY=1.25;exitDx=0;exitDy=0;exitPerimeter=0;entryX=0.945;entryY=1.138;entryDx=0;entryDy=0;entryPerimeter=0;" parent="1" source="ESTctOifAB1JOvWOm2H_-92" target="ESTctOifAB1JOvWOm2H_-245" edge="1">
          <mxGeometry width="50" height="50" relative="1" as="geometry">
            <mxPoint x="520" y="910" as="sourcePoint" />
            <mxPoint x="570" y="860" as="targetPoint" />
            <Array as="points">
              <mxPoint x="450" y="920" />
              <mxPoint x="2040" y="930" />
              <mxPoint x="2040" y="160" />
              <mxPoint x="800" y="150" />
            </Array>
          </mxGeometry>
        </mxCell>
      </root>
    </mxGraphModel>
  </diagram>
</mxfile>
